<svg width="22" height="22" fill="none" xmlns="http://www.w3.org/2000/svg"><g clip-path="url(#clip0)"><g clip-path="url(#clip1)" fill="#fff"><path d="M15.135.336H7.122A6.678 6.678 0 00.445 7.013v8.012a6.678 6.678 0 006.677 6.677h8.013a6.678 6.678 0 006.677-6.677V7.013A6.678 6.678 0 0015.135.336zm4.673 14.689a4.68 4.68 0 01-4.673 4.674H7.122a4.679 4.679 0 01-4.674-4.674V7.013a4.679 4.679 0 014.674-4.674h8.013a4.679 4.679 0 014.673 4.674v8.012z"/><path d="M11.129 5.677a5.342 5.342 0 100 10.684 5.342 5.342 0 000-10.684zm0 8.68A3.343 3.343 0 017.79 11.02a3.342 3.342 0 013.34-3.34 3.342 3.342 0 013.338 3.339 3.343 3.343 0 01-3.338 3.338zm6.009-8.68a.668.668 0 100-1.335.668.668 0 000 1.335z"/></g></g><defs><clipPath id="clip0"><path fill="#fff" transform="translate(.445 .336)" d="M0 0h21.366v21.366H0z"/></clipPath><clipPath id="clip1"><path fill="#fff" transform="translate(.445 .336)" d="M0 0h21.366v21.366H0z"/></clipPath></defs></svg>