<svg width="23" height="22" fill="none" xmlns="http://www.w3.org/2000/svg"><g clip-path="url(#clip0)"><path d="M21.103 5.757c-.58-1.03-1.208-1.22-2.489-1.292-1.28-.087-4.496-.123-7.283-.123-2.792 0-6.01.036-7.289.121-1.278.074-1.908.262-2.493 1.294C.952 6.787.645 8.56.645 11.683v.01c0 3.109.307 4.896.904 5.915.585 1.03 1.214 1.218 2.492 1.304 1.28.075 4.498.12 7.29.12 2.787 0 6.004-.045 7.284-.118 1.281-.087 1.91-.274 2.49-1.305.602-1.019.906-2.806.906-5.914v-.011c0-3.124-.304-4.897-.908-5.927zM8.657 15.693V7.68l6.677 4.007-6.677 4.006z" fill="#fff"/></g><defs><clipPath id="clip0"><path fill="#fff" transform="translate(.645 .336)" d="M0 0h21.366v21.366H0z"/></clipPath></defs></svg>