<svg width="493" height="283" fill="none" xmlns="http://www.w3.org/2000/svg"><g filter="url(#filter0_d)"><path d="M203.339 85.532l-78.539-.429-4.382 16.807 10.23.056c23.54.128 41.981 7.269 55.324 21.422 13.343 14.153 17.634 34.087 12.873 59.801-4.312 24.177-15.523 42.596-33.632 55.257-17.89 12.663-39.044 18.927-63.464 18.794-21.12-.115-38.694-4.831-52.723-14.148-14.03-9.317-23.635-23.01-28.816-41.078l61.224-31.676c2.158 7.712 5.426 13.45 9.806 17.214 4.38 3.764 10.529 5.667 18.449 5.71 14.08.077 22.138-5.159 24.176-15.708 1.129-5.274.052-9.46-3.231-12.558-3.283-3.098-7.785-4.662-13.505-4.693l-75.899-.415L75.98 20.816l138.928.759-11.569 63.957zm77.002 56.522c-18.259-.1-32.634-6.558-43.124-19.376-10.27-12.816-13.817-28.016-10.641-45.599 3.175-17.363 11.613-31.727 25.315-43.092 13.924-11.584 30.126-17.326 48.605-17.225 18.04.099 32.195 6.556 42.465 19.373 10.49 12.817 14.147 28.017 10.971 45.6-3.176 17.583-11.615 32.057-25.318 43.422-13.702 11.366-29.793 16.998-48.273 16.897zm-36.376 74.382L428.011 52.769l20.386 13.642L264.35 230.078l-20.385-13.642zm43.229-120.545c4.62.025 8.699-1.603 12.237-4.884 3.758-3.279 6.089-7.116 6.993-11.511.905-4.616.046-8.47-2.577-11.565-2.402-3.313-5.913-4.982-10.533-5.007-4.62-.026-8.699 1.602-12.237 4.883-3.537 3.06-5.758 6.898-6.663 11.514-.904 4.395-.155 8.249 2.247 11.562 2.622 3.315 6.133 4.984 10.533 5.008zm110.651 162.967c-18.26-.1-32.635-6.559-43.125-19.376-10.27-12.817-13.817-28.016-10.641-45.599 3.175-17.363 11.614-31.727 25.316-43.092 13.924-11.584 30.125-17.326 48.605-17.225 18.04.098 32.194 6.666 42.463 19.702 10.49 12.818 14.148 27.908 10.973 45.271-3.176 17.583-11.616 32.057-25.318 43.422-13.702 11.365-29.793 16.998-48.273 16.897zm6.852-46.164c4.62.026 8.699-1.602 12.237-4.883 3.758-3.279 6.089-7.117 6.993-11.512.904-4.395.045-8.25-2.577-11.564-2.402-3.313-5.912-4.982-10.532-5.008-4.62-.025-8.699 1.603-12.237 4.884-3.537 3.06-5.758 6.898-6.663 11.513-.904 4.395-.155 8.25 2.247 11.563 2.622 3.314 6.132 4.983 10.532 5.007z" fill="url(#paint0_linear)"/><path d="M203.339 85.532l-.021 3.792 3.185.018.567-3.135-3.731-.675zm-78.539-.429l.021-3.792-2.947-.016-.743 2.852 3.669.956zm-4.382 16.807l-3.669-.957-1.231 4.722 4.879.027.021-3.792zm65.554 21.478l2.759-2.601-2.759 2.601zm12.873 59.801l-3.728-.69-.003.012-.002.013 3.733.665zm-33.632 55.257l-2.173-3.107-.009.006-.009.006 2.191 3.095zm-116.187 4.646l-2.098 3.159 2.098-3.159zM20.21 202.014l-1.743-3.368-2.759 1.427.857 2.986 3.645-1.045zm61.224-31.676l3.651-1.022-1.255-4.487-4.139 2.141 1.743 3.368zm9.806 17.214l-2.472 2.875 2.472-2.875zm42.625-9.998l-3.708-.793-.008.037-.007.037 3.723.719zm-3.231-12.558l-2.603 2.758 2.603-2.758zm-89.404-5.108l-3.679-.919-1.17 4.684 4.828.027.021-3.792zM75.98 20.816l.021-3.792-2.978-.017-.721 2.89 3.678.919zm138.928.759l3.732.675.803-4.443-4.514-.024-.021 3.792zM203.36 81.74l-78.539-.429-.042 7.584 78.539.43.042-7.585zm-82.229 2.407l-4.382 16.806 7.338 1.913 4.382-16.806-7.338-1.913zm-.734 21.555l10.23.055.042-7.583-10.23-.056-.042 7.584zm10.23.055c22.737.125 40.101 6.989 52.586 20.232l5.518-5.202c-14.201-15.063-33.72-22.48-58.062-22.613l-.042 7.583zm52.586 20.232c12.245 12.989 16.526 31.54 11.904 56.51l7.457 1.381c4.898-26.459.597-47.776-13.843-63.093l-5.518 5.202zm11.899 56.535c-4.157 23.308-14.881 40.795-32.072 52.815l4.346 6.215c19.027-13.303 30.725-32.654 35.192-57.699l-7.466-1.331zm-32.09 52.827c-17.17 12.154-37.53 18.227-61.252 18.097l-.041 7.584c25.116.137 47.066-6.319 65.675-19.49l-4.382-6.191zm-61.252 18.097c-20.568-.112-37.373-4.7-50.646-13.515l-4.196 6.318c14.785 9.818 33.13 14.663 54.801 14.781l.041-7.584zm-50.646-13.515c-13.191-8.76-22.305-21.655-27.27-38.965l-7.29 2.091c5.4 18.827 15.496 33.318 30.364 43.192l4.196-6.318zm-29.172-34.551l61.224-31.676-3.485-6.736-61.224 31.676 3.485 6.736zm55.83-34.023c2.284 8.164 5.859 14.661 10.986 19.068l4.943-5.751c-3.63-3.121-6.594-8.1-8.626-15.36l-7.303 2.043zm10.986 19.068c5.279 4.537 12.414 6.581 20.9 6.627l.042-7.584c-7.354-.04-12.518-1.803-15.999-4.794l-4.943 5.751zm20.9 6.627c7.455.041 13.815-1.313 18.691-4.481 4.999-3.248 8.04-8.145 9.229-14.3l-7.446-1.438c-.849 4.395-2.855 7.39-5.915 9.378-3.183 2.068-7.892 3.294-14.517 3.257l-.042 7.584zm27.905-18.706c1.343-6.274.111-11.912-4.337-16.11l-5.205 5.516c2.118 1.999 3.041 4.733 2.126 9.007l7.416 1.587zm-4.337-16.11c-4.154-3.92-9.673-5.692-16.086-5.727l-.042 7.583c5.027.028 8.511 1.384 10.923 3.66l5.205-5.516zm-16.086-5.727l-75.9-.415-.04 7.584 75.898.414.042-7.583zm-72.24 4.296L79.66 21.735l-7.358-1.839-34.75 139.073 7.357 1.838zm31.05-136.2l138.928.76.041-7.584-138.928-.76-.041 7.585zM211.177 20.9l-11.57 63.957 7.463 1.35 11.57-63.957-7.463-1.35zm26.04 101.778l-2.959 2.371.012.016.012.015 2.935-2.402zm-10.641-45.599l-3.731-.682-.001.008 3.732.674zm25.315-43.092l2.421 2.919.005-.004-2.426-2.915zm91.07 2.148l-2.959 2.37.012.016.013.015 2.934-2.401zm10.971 45.6l-3.731-.674 3.731.674zm-25.318 43.422l2.421 2.919-2.421-2.919zm-84.649 91.279l-2.52-2.833-3.664 3.258 4.075 2.727 2.109-3.152zM428.011 52.769l2.109-3.151-2.437-1.631-2.191 1.949 2.519 2.833zm20.386 13.642l2.52 2.834 3.664-3.259-4.075-2.727-2.109 3.152zM264.35 230.078l-2.109 3.151 2.438 1.631 2.191-1.948-2.52-2.834zm35.081-139.07l-2.494-2.858-.043.038-.042.039 2.579 2.78zm6.993-11.512l3.714.764.003-.017.004-.018-3.721-.73zm-2.577-11.565l-3.07 2.226.084.117.093.11 2.893-2.453zm-22.77-.124l2.482 2.867.049-.042.047-.045-2.578-2.78zm-6.663 11.514l3.714.764.004-.017.003-.017-3.721-.73zm2.247 11.562l-3.07 2.226.047.064.049.063 2.974-2.353zm78.059 148.599l-2.959 2.371.012.015.013.015 2.934-2.401zm-10.641-45.599l-3.73-.682-.001.008 3.731.674zm25.316-43.092l2.421 2.918.004-.003-2.425-2.915zm91.068 2.477l-2.979 2.347.022.027.022.028 2.935-2.402zm10.973 45.271l-3.73-.682-.002.008 3.732.674zm-25.318 43.422l-2.421-2.919 2.421 2.919zm-29.184-34.15l-2.493-2.857-.043.038-.042.039 2.578 2.78zm6.993-11.512l-3.714-.764 3.714.764zm-2.577-11.564l-3.07 2.226.047.064.049.063 2.974-2.353zm-22.769-.124l2.481 2.867.049-.043.048-.044-2.578-2.78zm-6.663 11.513l3.714.764.003-.017.004-.017-3.721-.73zm2.247 11.563l-3.07 2.225.046.065.05.062 2.974-2.352zm-113.803-69.425c-17.261-.094-30.515-6.139-40.211-17.986l-5.869 4.804c11.285 13.788 26.78 20.661 46.039 20.766l.041-7.584zm-40.186-17.955c-9.52-11.879-12.869-25.943-9.869-42.554l-7.463-1.348c-3.352 18.555.393 34.891 11.414 48.644l5.918-4.742zm-9.87-42.546c3.013-16.478 10.983-30.053 24.006-40.855l-4.841-5.838c-14.382 11.929-23.289 27.082-26.626 45.33l7.461 1.363zm24.011-40.86c13.221-11 28.552-16.443 46.159-16.347l.041-7.584c-19.353-.106-36.426 5.934-51.051 18.102l4.851 5.83zm46.159-16.347c17.024.093 30.047 6.123 39.526 17.952l5.918-4.743c-11.062-13.804-26.348-20.689-45.403-20.793l-.041 7.584zm39.551 17.982c9.726 11.885 13.17 25.937 10.174 42.525l7.463 1.348c3.356-18.578-.515-34.926-11.768-48.676l-5.869 4.803zm10.174 42.525c-3.018 16.707-10.996 30.385-24.007 41.178l4.841 5.837c14.393-11.938 23.294-27.208 26.629-45.667l-7.463-1.348zm-24.007 41.178c-12.989 10.773-28.206 16.119-45.832 16.023l-.041 7.584c19.334.106 36.298-5.813 50.714-17.77l-4.841-5.837zm-79.71 97.031L430.531 55.603l-5.039-5.667-184.047 163.667 5.039 5.667zM425.903 55.92l20.385 13.642 4.218-6.302-20.386-13.642-4.217 6.303zm19.974 7.657L261.83 227.244l5.04 5.668L450.917 69.245l-5.04-5.668zM266.459 226.926l-20.386-13.641-4.217 6.303 20.385 13.641 4.218-6.303zm20.714-127.243c5.63.03 10.626-1.991 14.836-5.895l-5.157-5.561c-2.866 2.658-6.027 3.891-9.638 3.872l-.041 7.584zm14.751-5.819c4.309-3.76 7.124-8.306 8.214-13.605l-7.429-1.528c-.718 3.493-2.565 6.621-5.772 9.42l4.987 5.714zm8.221-13.639c1.087-5.544.087-10.626-3.406-14.746l-5.785 4.904c1.754 2.069 2.472 4.696 1.749 8.383l7.442 1.46zm-3.228-14.52c-3.21-4.427-7.934-6.542-13.582-6.573l-.042 7.584c3.591.02 5.89 1.242 7.484 3.441l6.14-4.451zm-13.582-6.573c-5.63-.031-10.626 1.99-14.836 5.894l5.156 5.561c2.867-2.657 6.028-3.891 9.638-3.871l.042-7.584zm-14.739 5.807c-4.181 3.619-6.836 8.21-7.903 13.652l7.442 1.46c.743-3.79 2.531-6.874 5.424-9.377l-4.963-5.735zM270.7 78.557c-1.096 5.325-.2 10.288 2.891 14.552l6.14-4.452c-1.713-2.362-2.315-5.108-1.603-8.572l-7.428-1.528zm2.987 14.679c3.37 4.26 7.989 6.417 13.486 6.447l.041-7.584c-3.302-.018-5.705-1.2-7.579-3.569l-5.948 4.706zm124.179 161.83c-17.261-.095-30.516-6.139-40.211-17.986l-5.869 4.803c11.285 13.789 26.78 20.661 46.038 20.767l.042-7.584zm-40.187-17.955c-9.519-11.88-12.869-25.943-9.868-42.554l-7.463-1.348c-3.352 18.555.392 34.891 11.413 48.644l5.918-4.742zm-9.87-42.546c3.014-16.479 10.984-30.054 24.007-40.856l-4.842-5.837c-14.381 11.929-23.288 27.082-26.625 45.329l7.46 1.364zm24.011-40.859c13.222-11.001 28.553-16.444 46.159-16.348l.042-7.584c-19.353-.106-36.426 5.934-51.051 18.102l4.85 5.83zm46.159-16.348c17 .093 30.019 6.214 39.505 18.257l5.958-4.693c-11.052-14.03-26.342-21.044-45.421-21.148l-.042 7.584zm39.549 18.312c9.735 11.894 13.167 25.837 10.178 42.187l7.46 1.364c3.36-18.376-.522-34.613-11.769-48.354l-5.869 4.803zm10.176 42.195c-3.018 16.707-10.995 30.385-24.007 41.177l4.842 5.838c14.393-11.938 23.294-27.208 26.628-45.667l-7.463-1.348zm-24.007 41.177c-12.988 10.774-28.206 16.12-45.831 16.024l-.042 7.584c19.334.105 36.299-5.813 50.715-17.77l-4.842-5.838zm-39.02-22.556c5.629.031 10.626-1.991 14.836-5.894l-5.157-5.561c-2.866 2.657-6.027 3.891-9.638 3.871l-.041 7.584zm14.751-5.818c4.309-3.761 7.124-8.307 8.213-13.605l-7.428-1.528c-.718 3.492-2.566 6.621-5.772 9.419l4.987 5.714zm8.213-13.605c1.114-5.415.048-10.428-3.317-14.681l-5.948 4.706c1.88 2.375 2.531 5.072 1.837 8.447l7.428 1.528zm-3.221-14.554c-3.209-4.427-7.933-6.543-13.582-6.574l-.041 7.584c3.591.02 5.889 1.243 7.483 3.442l6.14-4.452zm-13.582-6.574c-5.629-.03-10.626 1.991-14.836 5.895l5.157 5.561c2.866-2.658 6.027-3.891 9.638-3.872l.041-7.584zm-14.739 5.808c-4.181 3.618-6.835 8.21-7.902 13.651l7.442 1.46c.743-3.789 2.53-6.873 5.423-9.376l-4.963-5.735zm-7.896 13.617c-1.095 5.326-.2 10.289 2.892 14.552l6.14-4.451c-1.713-2.363-2.316-5.108-1.603-8.573l-7.429-1.528zm2.988 14.679c3.37 4.26 7.989 6.417 13.486 6.447l.041-7.584c-3.303-.018-5.706-1.199-7.579-3.568l-5.948 4.705z" fill="url(#paint1_linear)"/></g><defs><linearGradient id="paint0_linear" x1="271.229" y1="-44.878" x2="249.237" y2="207.341" gradientUnits="userSpaceOnUse"><stop stop-color="#FDFFFC"/><stop offset=".141" stop-color="#C2FFC8"/><stop offset=".318" stop-color="#98FFB5"/><stop offset=".62" stop-color="#00BB29"/><stop offset=".766" stop-color="#01AF3C"/><stop offset="1" stop-color="#009C35"/></linearGradient><linearGradient id="paint1_linear" x1="-134.059" y1="-111.234" x2="753.935" y2="244.59" gradientUnits="userSpaceOnUse"><stop stop-color="#E0FEE7" stop-opacity=".03"/><stop offset="1" stop-color="#81FFA4"/></linearGradient><filter id="filter0_d" x=".21" y=".761" width="492.332" height="282.098" filterUnits="userSpaceOnUse" color-interpolation-filters="sRGB"><feFlood flood-opacity="0" result="BackgroundImageFix"/><feColorMatrix in="SourceAlpha" values="0 0 0 0 0 0 0 0 0 0 0 0 0 0 0 0 0 0 127 0"/><feOffset dy="4"/><feGaussianBlur stdDeviation="10"/><feColorMatrix values="0 0 0 0 0.329412 0 0 0 0 0.878431 0 0 0 0 0.462745 0 0 0 0.7 0"/><feBlend in2="BackgroundImageFix" result="effect1_dropShadow"/><feBlend in="SourceGraphic" in2="effect1_dropShadow" result="shape"/></filter></defs></svg>