<svg width="190" height="41" fill="none" xmlns="http://www.w3.org/2000/svg"><g clip-path="url(#clip0)"><path d="M14.21 18.596l.924 4.294h6.715l2.288-4-1.85 10.49h8.954L36.206.981h-9.392l-6.57 11.32L17.665.982H8.37l-5.013 28.4h8.954l1.898-10.785zM60.002 29.38h11.095l5.11-6.49 3.455 6.49H89.2l-7.397-13.76L93.385.98H82.29l-4.915 6.246L74.115.98h-9.539l7.154 13.47-8.322 10.588-3.406 4.343zm-17.275 0l2.773-6.49h4.477l.536 6.49h9.099l-.632-4.294L55.379 1.03h-7.786L33.48 29.38h9.247zm4.817-11.613l1.85-4.245.291 4.245h-2.14z" fill="#fff"/><path d="M100.684 32.503l3.601-20.348H95.38l-5.012 28.302h20.146l1.412-7.954h-11.242zm17.908-20.396l-5.012 28.3h8.954l5.012-28.3h-8.954zm27.301 0L143.8 24.11l-6.424-12.003h-6.812l-5.013 28.3h8.954l2.093-11.905 6.326 11.906h6.91l5.013-28.301h-8.954zm30.025 8.002l1.363-7.954h-19.417l-5.012 28.302h19.465l1.362-7.954h-10.511l.438-2.684h7.494l1.363-7.514h-7.494l.34-2.196h10.609zM2.774 32.503L0 40.456h87.253l1.412-7.953H2.773z" fill="#009A17"/><path d="M95.915 9.032l1.412-7.953h83.603l-3.065 7.953h-81.95zm90.904-6.928c.389 0 .778.097 1.167.244.341.146.633.341.974.634a2.6 2.6 0 01.632.976c.146.341.244.732.244 1.17 0 .538-.098 1.026-.39 1.465-.292.439-.632.83-1.07 1.073-.487.293-.973.39-1.46.39-.535 0-1.022-.097-1.46-.39-.487-.293-.827-.634-1.071-1.073-.292-.44-.389-.976-.389-1.464s.097-1.025.389-1.464c.292-.44.633-.83 1.071-1.074.341-.39.827-.487 1.363-.487zm0 .585c-.438 0-.828.098-1.217.293a2.243 2.243 0 00-.827.83c-.244.34-.292.78-.292 1.17 0 .39.097.83.292 1.172.243.341.486.634.876.83.34.194.778.292 1.216.292.438 0 .828-.098 1.217-.293.34-.195.632-.488.827-.83.195-.341.292-.78.292-1.17 0-.39-.097-.83-.292-1.172a2.258 2.258 0 00-.827-.83c-.438-.194-.827-.292-1.265-.292zm-.682 3.904h-.632V3.47h1.46c.243 0 .438.049.584.097.146.098.292.196.34.293.097.098.097.293.097.44a.81.81 0 01-.243.585c-.146.146-.34.293-.632.293.146.048.243.097.34.244.098.097.195.292.341.488l.389.634h-.778l-.292-.488c-.098-.244-.244-.39-.292-.488-.098-.098-.146-.195-.292-.244-.098-.049-.195-.098-.292-.098h-.146v1.367h.048zm0-2.586v.83h.487c.243 0 .438-.05.535-.099.098-.097.195-.195.195-.341 0-.098-.049-.244-.146-.293-.097-.097-.292-.097-.487-.097h-.584z" fill="#fff"/></g><defs><clipPath id="clip0"><path fill="#fff" transform="translate(0 .59)" d="M0 0h189.787v40.012H0z"/></clipPath></defs></svg>