<svg width="211" height="58" fill="none" xmlns="http://www.w3.org/2000/svg"><path d="M27.14 40.828c.985 0 1.898-.217 2.742-.652.843-.434 1.546-.941 2.109-1.666.562-.724 1.054-1.52 1.335-2.462.281-.942.492-1.956.492-3.042 0-1.449-.421-2.68-1.265-3.694-.843-1.014-2.038-1.521-3.515-1.521-.913 0-1.827.217-2.67.652-.844.434-1.547 1.014-2.18 1.738-.632.724-1.054 1.594-1.405 2.535a8.644 8.644 0 00-.563 3.042c0 1.521.422 2.752 1.336 3.766.843.797 2.108 1.304 3.585 1.304zm25.164-13.399c-.843 0-1.616.145-2.249.434-.703.29-1.265.725-1.757 1.16-.492.506-.914 1.013-1.266 1.593-.35.58-.562 1.159-.632 1.666h10.052c0-.218.07-.363.07-.58v-.507c0-1.086-.352-2.028-1.125-2.752-.703-.652-1.757-1.014-3.093-1.014z" fill="#fff"/><path d="M60.742 33.595c-.07.797-.21 1.521-.35 2.246h-14.48c0 .145-.071.29-.071.434 0 .652.14 1.304.351 1.811.282.58.633 1.014 1.055 1.449.492.434.984.724 1.616.941.633.217 1.266.362 2.039.362 1.265 0 2.32-.217 3.163-.724s1.687-1.086 2.39-1.956l2.741 2.608c-2.39 2.68-5.342 3.983-8.786 3.983a11.72 11.72 0 01-3.655-.58 9.67 9.67 0 01-2.882-1.737c-.844-.725-1.476-1.666-1.898-2.753-.492-1.086-.703-2.39-.703-3.766 0-1.738.281-3.332.843-4.853.563-1.52 1.336-2.824 2.39-3.91.984-1.087 2.18-1.956 3.585-2.608 1.406-.652 2.882-.942 4.57-.942 1.124 0 2.248.145 3.233.507.983.363 1.827.87 2.6 1.521.703.652 1.265 1.521 1.687 2.535.422 1.014.633 2.173.633 3.477 0 .58 0 1.159-.07 1.955zM91.32 9.55c-4.5-10.937-25.306-13.11-53.774-.797-4.358 1.883-8.294 3.838-11.879 5.939l-2.32 12.747h.071c.773-1.159 1.757-2.1 3.023-2.752a8.25 8.25 0 014.006-1.014c1.265 0 2.39.217 3.374.652.984.434 1.898 1.014 2.6 1.738a8.95 8.95 0 011.688 2.752c.422 1.087.562 2.245.562 3.477 0 1.738-.281 3.331-.773 4.852-.562 1.521-1.265 2.825-2.179 3.912-.914 1.158-2.038 2.028-3.374 2.68-1.335.651-2.741 1.013-4.288 1.013-1.476 0-2.811-.362-4.077-1.014a6.655 6.655 0 01-2.881-2.897h-.07l-.563 3.404h-4.499l4.499-26.291C4.369 28.67-1.816 40.548 1.628 48.878c4.498 10.936 28.257 11.081 53 .217a105.932 105.932 0 0011.386-5.794c-.773-.797-1.195-1.883-1.195-3.187 0-.362 0-.797.07-1.304.071-.434.071-.869.212-1.303l1.687-9.271h-3.515l.703-3.984h3.374l.984-5.866h4.71l-.985 5.866h4.358l-.703 3.984h-4.287l-1.687 9.343c-.07.507-.14.87-.14 1.231 0 .724.21 1.231.632 1.521.07.073.21.145.281.145C85.977 30.264 94.763 17.951 91.319 9.55zm4.072 25.918c0 1.449.422 2.68 1.266 3.694.843 1.014 1.968 1.521 3.514 1.521a5.82 5.82 0 002.671-.652c.844-.434 1.547-1.014 2.179-1.738.633-.724 1.055-1.52 1.406-2.462a8.541 8.541 0 00.562-2.97c0-1.521-.421-2.752-1.335-3.766-.914-.942-2.109-1.449-3.585-1.449a5.89 5.89 0 00-2.741.652 7.042 7.042 0 00-2.109 1.666c-.562.724-1.054 1.52-1.335 2.462-.282.942-.493 1.956-.493 3.042zm12.653-8.112l.492-3.042h4.569l-3.093 18.325c-.281 1.738-.703 3.331-1.265 4.78a11.945 11.945 0 01-2.25 3.694c-.913 1.014-2.108 1.81-3.514 2.39-1.406.58-3.093.87-5.061.87a15.57 15.57 0 01-2.53-.218 16.256 16.256 0 01-2.531-.652 10.437 10.437 0 01-2.39-1.159c-.773-.434-1.406-.941-1.898-1.52l3.163-3.55c.773.942 1.687 1.594 2.812 2.1 1.125.508 2.25.725 3.514.725 1.195 0 2.18-.145 3.023-.507s1.546-.797 2.109-1.449c.562-.58.984-1.376 1.335-2.172.352-.87.563-1.811.844-2.753l.351-1.593h-.281a7.932 7.932 0 01-2.741 2.318c-1.125.579-2.46.869-3.937.869-1.265 0-2.39-.218-3.374-.652-.984-.435-1.897-1.014-2.6-1.738-.703-.725-1.266-1.666-1.687-2.68-.422-1.087-.563-2.246-.563-3.477 0-1.666.281-3.332.774-4.78.562-1.521 1.265-2.825 2.179-3.911.913-1.16 2.038-2.028 3.373-2.68 1.336-.652 2.742-.942 4.288-.942 1.758 0 3.234.362 4.288 1.014 1.054.652 1.898 1.521 2.39 2.608h.211v-.218zm19.611 7.75c-.914 0-1.898 0-2.882.073-.984.072-1.898.217-2.741.507a4.655 4.655 0 00-2.039 1.086c-.562.435-.773 1.087-.773 1.883 0 .507.071.87.281 1.16.141.289.422.579.703.796.281.217.633.362.984.434.352.073.774.145 1.195.145a6.37 6.37 0 002.039-.362c.632-.217 1.195-.58 1.687-1.014.492-.434.843-.941 1.195-1.52.281-.58.562-1.16.703-1.884l.21-1.231h-.562v-.073zm.984-3.476c.071-.362.071-.58.071-.797v-.507c0-.941-.282-1.666-.914-2.1-.633-.435-1.476-.652-2.671-.652-.914 0-1.898.217-2.953.58-.984.361-1.897.869-2.671 1.448l-1.827-3.26a13.388 13.388 0 013.796-1.883c1.405-.434 2.881-.724 4.358-.724.913 0 1.827.073 2.741.29.914.217 1.687.58 2.46 1.014.703.507 1.265 1.086 1.687 1.883.422.797.633 1.738.633 2.825 0 .217 0 .58-.071.941 0 .362-.07.652-.14.942l-1.406 8.112c-.141.797-.281 1.593-.351 2.39-.071.87-.141 1.52-.141 2.1h-4.358c0-.724.07-1.52.211-2.39h-.07c-1.547 1.883-3.585 2.825-6.327 2.825a10.42 10.42 0 01-2.108-.217c-.703-.145-1.406-.435-1.969-.87a6.326 6.326 0 01-1.476-1.593c-.351-.652-.562-1.52-.562-2.535 0-1.666.422-2.97 1.265-3.983.844-1.014 1.968-1.811 3.304-2.39 1.335-.58 2.882-.942 4.499-1.16a41.463 41.463 0 014.99-.29zm10.685-5.07c.14-.87.211-1.593.281-2.245h4.428c0 .29-.07.796-.14 1.448a35.388 35.388 0 01-.211 1.666h.07c.562-.941 1.406-1.81 2.32-2.535.984-.724 2.179-1.159 3.655-1.159 1.617 0 2.952.362 3.936 1.087.984.724 1.617 1.666 1.898 2.824.844-1.231 1.828-2.172 2.952-2.897 1.125-.724 2.46-1.014 3.937-1.014 1.124 0 2.108.145 2.881.507a7.16 7.16 0 012.039 1.304c.562.58.914 1.231 1.195 1.956.281.796.351 1.593.351 2.39 0 .724-.07 1.303-.14 1.883l-2.179 12.457h-4.71l1.898-11.009c.07-.362.07-.652.141-1.014.07-.362.07-.652.07-1.014 0-.434-.07-.869-.141-1.303-.14-.435-.281-.797-.562-1.087a2.098 2.098 0 00-.984-.724c-.422-.217-.914-.29-1.546-.29-.774 0-1.406.145-2.039.507-.562.362-1.125.797-1.546 1.304a7.107 7.107 0 00-1.055 1.738c-.281.652-.492 1.304-.562 1.956l-1.828 10.936h-4.779l2.038-12.095c.07-.435.141-.797.141-1.159 0-.942-.211-1.738-.703-2.318-.492-.58-1.265-.869-2.25-.869-.702 0-1.405.145-1.968.507-.562.29-1.054.725-1.546 1.231a7.075 7.075 0 00-1.054 1.739c-.282.652-.492 1.303-.563 1.955l-1.898 11.01h-4.709l2.671-15.717c0-.435.141-1.16.211-1.956zm48.009 5.794c0-.217.07-.362.07-.58v-.506c0-1.087-.351-2.028-1.125-2.753-.773-.724-1.757-1.159-3.163-1.159-.843 0-1.616.145-2.249.435-.703.29-1.265.724-1.757 1.159-.492.507-.914 1.014-1.266 1.593-.351.58-.562 1.16-.632 1.666h10.122v.145zm-10.544 3.477c0 .144-.07.29-.07.434 0 .652.14 1.304.351 1.81.281.58.633 1.015 1.055 1.45a4.55 4.55 0 001.616.94c.633.218 1.266.363 2.039.363 1.265 0 2.319-.217 3.163-.724.843-.507 1.687-1.087 2.39-1.956l2.741 2.608c-2.39 2.68-5.342 3.983-8.786 3.983-1.336 0-2.531-.217-3.655-.58a9.66 9.66 0 01-2.882-1.737c-.844-.725-1.476-1.666-1.898-2.753-.492-1.086-.703-2.39-.703-3.766 0-1.738.281-3.332.843-4.853.563-1.52 1.336-2.824 2.39-3.91.984-1.087 2.179-1.956 3.585-2.608 1.406-.652 2.882-.942 4.569-.942 1.125 0 2.249.145 3.233.507a8.55 8.55 0 012.601 1.521c.703.652 1.265 1.521 1.687 2.535.422 1.014.633 2.173.633 3.477 0 .434-.071 1.086-.141 1.883-.07.797-.211 1.52-.351 2.245h-14.41v.072zm19.33 2.752c.422.797.985 1.449 1.828 1.883.773.435 1.687.652 2.671.652 1.125 0 1.968-.217 2.671-.652.633-.434.984-1.086.984-1.81 0-.725-.281-1.232-.773-1.594-.492-.362-1.336-.724-2.53-1.086-.914-.29-1.687-.652-2.39-.942a5.042 5.042 0 01-1.687-1.159c-.492-.434-.774-.941-1.055-1.448a5.676 5.676 0 01-.351-1.956c0-.942.211-1.883.632-2.68.422-.797 1.055-1.52 1.758-2.1.773-.58 1.616-1.014 2.671-1.376 1.054-.29 2.179-.507 3.374-.507 1.546 0 2.882.29 4.147.869a6.769 6.769 0 012.882 2.607l-3.655 2.245c-.352-.579-.844-1.014-1.406-1.376-.562-.362-1.336-.58-2.32-.58-.421 0-.843.073-1.265.146-.422.072-.773.217-1.125.362a2.542 2.542 0 00-.773.724c-.211.29-.281.652-.281 1.159 0 .652.281 1.087.773 1.449.563.29 1.336.579 2.32.941 1.827.507 3.233 1.231 4.217 2.173.984.87 1.476 2.173 1.476 3.839 0 1.086-.21 2.1-.702 2.97-.493.868-1.055 1.593-1.828 2.172-.773.58-1.687 1.014-2.671 1.304-.984.29-2.109.434-3.233.434-2.109 0-3.796-.362-5.061-1.159-1.266-.796-2.25-1.738-2.953-2.824l3.655-2.68z" fill="#fff"/></svg>