<svg width="22" height="22" viewBox="0 0 22 22" fill="none" xmlns="http://www.w3.org/2000/svg">
<g clip-path="url(#clip0)">
<g clip-path="url(#clip1)">
<path d="M15.1346 0.335602H7.12226C3.43525 0.335602 0.445312 3.32554 0.445312 7.01255V15.0249C0.445312 18.7119 3.43525 21.7018 7.12226 21.7018H15.1346C18.8216 21.7018 21.8116 18.7119 21.8116 15.0249V7.01255C21.8116 3.32554 18.8216 0.335602 15.1346 0.335602ZM19.8085 15.0249C19.8085 17.6022 17.7119 19.6988 15.1346 19.6988H7.12226C4.54496 19.6988 2.4484 17.6022 2.4484 15.0249V7.01255C2.4484 4.43525 4.54496 2.33869 7.12226 2.33869H15.1346C17.7119 2.33869 19.8085 4.43525 19.8085 7.01255V15.0249Z" fill="white"/>
<path d="M11.1287 5.67709C8.17879 5.67709 5.78711 8.06878 5.78711 11.0187C5.78711 13.9685 8.17879 16.3602 11.1287 16.3602C14.0785 16.3602 16.4702 13.9685 16.4702 11.0187C16.4702 8.06878 14.0785 5.67709 11.1287 5.67709ZM11.1287 14.3571C9.2885 14.3571 7.79019 12.8588 7.79019 11.0187C7.79019 9.17715 9.2885 7.68018 11.1287 7.68018C12.9688 7.68018 14.4671 9.17715 14.4671 11.0187C14.4671 12.8588 12.9688 14.3571 11.1287 14.3571Z" fill="white"/>
<path d="M17.1379 5.67706C17.5067 5.67706 17.8056 5.37813 17.8056 5.00937C17.8056 4.64061 17.5067 4.34167 17.1379 4.34167C16.7692 4.34167 16.4702 4.64061 16.4702 5.00937C16.4702 5.37813 16.7692 5.67706 17.1379 5.67706Z" fill="white"/>
</g>
</g>
<defs>
<clipPath id="clip0">
<rect width="21.3662" height="21.3662" fill="white" transform="translate(0.445312 0.335602)"/>
</clipPath>
<clipPath id="clip1">
<rect width="21.3662" height="21.3662" fill="white" transform="translate(0.445312 0.335602)"/>
</clipPath>
</defs>
</svg>
