<svg width="25" height="25" viewBox="0 0 25 25" fill="none" xmlns="http://www.w3.org/2000/svg">
<path d="M1.94593 11.9604C4.2024 10.7175 6.72124 9.68011 9.07473 8.63744C13.1236 6.92963 17.1886 5.25142 21.2946 3.68903C22.0935 3.42281 23.5289 3.16246 23.6697 4.34636C23.5925 6.02216 23.2756 7.68815 23.0581 9.35413C22.5061 13.0178 21.8682 16.6689 21.2461 20.3205C21.0317 21.5368 19.508 22.1665 18.5331 21.3881C16.19 19.8054 13.829 18.2382 11.5159 16.6189C10.7582 15.8489 11.4608 14.7433 12.1375 14.1935C14.0673 12.2917 16.1139 10.6759 17.9428 8.6758C18.4361 7.48442 16.9785 8.48849 16.4977 8.79612C13.8558 10.6167 11.2785 12.5484 8.49315 14.1484C7.07038 14.9317 5.41212 14.2623 3.98999 13.8253C2.71487 13.2974 0.846349 12.7655 1.9458 11.9605L1.94593 11.9604Z" fill="white"/>
</svg>
