<svg width="23" height="22" viewBox="0 0 23 22" fill="none" xmlns="http://www.w3.org/2000/svg">
<g clip-path="url(#clip0)">
<path d="M21.8887 15.0614C21.8313 14.9666 21.476 14.2056 19.7666 12.6415C17.977 11.0037 18.2174 11.2697 20.3729 8.43769C21.6857 6.71296 22.2105 5.65969 22.0463 5.20942C21.89 4.78021 20.9245 4.89344 20.9245 4.89344L17.714 4.91187C17.714 4.91187 17.4762 4.88027 17.2986 4.98428C17.1263 5.08697 17.0155 5.32396 17.0155 5.32396C17.0155 5.32396 16.5067 6.65898 15.8282 7.79387C14.3979 10.1887 13.825 10.3151 13.5913 10.1664C13.0478 9.8201 13.184 8.77341 13.184 8.03086C13.184 5.70972 13.5406 4.74203 12.4882 4.49188C12.1383 4.40893 11.8819 4.35364 10.9884 4.34442C9.84258 4.33257 8.87169 4.34837 8.3228 4.613C7.95688 4.78943 7.67509 5.18309 7.84737 5.20547C8.05971 5.23312 8.54048 5.33318 8.79556 5.67549C9.12543 6.11654 9.11341 7.10925 9.11341 7.10925C9.11341 7.10925 9.30305 9.84117 8.67136 10.1808C8.23733 10.4139 7.64304 9.93859 6.36764 7.76491C5.71459 6.65239 5.22046 5.42139 5.22046 5.42139C5.22046 5.42139 5.12564 5.1923 4.95603 5.06986C4.75037 4.92108 4.4619 4.87369 4.4619 4.87369L1.40898 4.89212C1.40898 4.89212 0.950906 4.90529 0.782634 5.10146C0.633059 5.27656 0.770615 5.63731 0.770615 5.63731C0.770615 5.63731 3.16114 11.1499 5.86684 13.9292C8.34951 16.4768 11.1674 16.3096 11.1674 16.3096H12.4441C12.4441 16.3096 12.8301 16.2674 13.0264 16.0581C13.208 15.8659 13.2013 15.5051 13.2013 15.5051C13.2013 15.5051 13.176 13.8159 13.9719 13.5671C14.7558 13.3222 15.7628 15.1997 16.8299 15.9225C17.6365 16.4689 18.2495 16.349 18.2495 16.349L21.1034 16.3096C21.1034 16.3096 22.5965 16.2187 21.8887 15.0614Z" fill="white"/>
</g>
<defs>
<clipPath id="clip0">
<rect width="21.3662" height="21.3662" fill="white" transform="translate(0.712891 0.335602)"/>
</clipPath>
</defs>
</svg>
