<svg width="23" height="22" viewBox="0 0 23 22" fill="none" xmlns="http://www.w3.org/2000/svg">
<g clip-path="url(#clip0)">
<path d="M21.1032 5.75743C20.5236 4.72651 19.8947 4.53689 18.614 4.46477C17.3347 4.37797 14.1178 4.34192 11.3308 4.34192C8.53851 4.34192 5.32022 4.37797 4.04225 4.46344C2.76428 4.53689 2.13398 4.72518 1.54908 5.75743C0.952159 6.78702 0.64502 8.56042 0.64502 11.6826C0.64502 11.6852 0.64502 11.6866 0.64502 11.6866C0.64502 11.6892 0.64502 11.6906 0.64502 11.6906V11.6932C0.64502 14.802 0.952159 16.5888 1.54908 17.6077C2.13398 18.6386 2.76295 18.8256 4.04092 18.9124C5.32022 18.9871 8.53851 19.0312 11.3308 19.0312C14.1178 19.0312 17.3347 18.9871 18.6154 18.9137C19.896 18.8269 20.525 18.6399 21.1045 17.609C21.7068 16.5901 22.0113 14.8034 22.0113 11.6946C22.0113 11.6946 22.0113 11.6906 22.0113 11.6879C22.0113 11.6879 22.0113 11.6852 22.0113 11.6839C22.0113 8.56042 21.7068 6.78702 21.1032 5.75743ZM8.65736 15.6927V7.68039L15.3343 11.6866L8.65736 15.6927Z" fill="white"/>
</g>
<defs>
<clipPath id="clip0">
<rect width="21.3662" height="21.3662" fill="white" transform="translate(0.64502 0.335815)"/>
</clipPath>
</defs>
</svg>
