<svg width="493" height="283" viewBox="0 0 493 283" fill="none" xmlns="http://www.w3.org/2000/svg">
<g filter="url(#filter0_d)">
<path d="M203.339 85.5324L124.8 85.1033L120.418 101.91L130.648 101.966C154.188 102.094 172.629 109.235 185.972 123.388C199.315 137.541 203.606 157.475 198.845 183.189C194.533 207.366 183.322 225.785 165.213 238.446C147.323 251.109 126.169 257.373 101.749 257.24C80.6296 257.125 63.0551 252.409 49.0258 243.092C34.9964 233.775 25.3911 220.082 20.2097 202.014L81.4337 170.338C83.5916 178.05 86.8603 183.788 91.2398 187.552C95.6193 191.316 101.769 193.219 109.689 193.262C123.769 193.339 131.827 188.103 133.865 177.554C134.994 172.28 133.917 168.094 130.634 164.996C127.351 161.898 122.849 160.334 117.129 160.303L41.2302 159.888L75.9805 20.8157L214.908 21.5747L203.339 85.5324ZM280.341 142.054C262.082 141.954 247.707 135.496 237.217 122.678C226.947 109.862 223.4 94.6622 226.576 77.0793C229.751 59.7163 238.189 45.3522 251.891 33.9869C265.815 22.4028 282.017 16.6612 300.496 16.7622C318.536 16.8608 332.691 23.3182 342.961 36.1345C353.451 48.952 357.108 64.1522 353.932 81.7351C350.756 99.318 342.317 113.792 328.614 125.157C314.912 136.523 298.821 142.155 280.341 142.054ZM243.965 216.436L428.011 52.7694L448.397 66.411L264.35 230.078L243.965 216.436ZM287.194 95.8907C291.814 95.916 295.893 94.2882 299.431 91.0075C303.189 87.728 305.52 83.8906 306.424 79.4955C307.329 74.8804 306.47 71.0256 303.847 67.9313C301.445 64.6181 297.934 62.9489 293.314 62.9236C288.694 62.8984 284.615 64.5261 281.077 67.8069C277.54 70.8676 275.319 74.7055 274.414 79.3206C273.51 83.7158 274.259 87.5699 276.661 90.8831C279.283 94.1975 282.794 95.8667 287.194 95.8907ZM397.845 258.858C379.585 258.758 365.21 252.299 354.72 239.482C344.45 226.665 340.903 211.466 344.079 193.883C347.254 176.52 355.693 162.156 369.395 150.791C383.319 139.207 399.52 133.465 418 133.566C436.04 133.664 450.194 140.232 460.463 153.268C470.953 166.086 474.611 181.176 471.436 198.539C468.26 216.122 459.82 230.596 446.118 241.961C432.416 253.326 416.325 258.959 397.845 258.858ZM404.697 212.694C409.317 212.72 413.396 211.092 416.934 207.811C420.692 204.532 423.023 200.694 423.927 196.299C424.831 191.904 423.972 188.049 421.35 184.735C418.948 181.422 415.438 179.753 410.818 179.727C406.198 179.702 402.119 181.33 398.581 184.611C395.044 187.671 392.823 191.509 391.918 196.124C391.014 200.519 391.763 204.374 394.165 207.687C396.787 211.001 400.297 212.67 404.697 212.694Z" fill="url(#paint0_linear)"/>
<path d="M203.339 85.5324L203.318 89.3244L206.503 89.3418L207.07 86.2074L203.339 85.5324ZM124.8 85.1033L124.821 81.3114L121.874 81.2953L121.131 84.1466L124.8 85.1033ZM120.418 101.91L116.749 100.953L115.518 105.675L120.397 105.702L120.418 101.91ZM185.972 123.388L188.731 120.787L188.731 120.787L185.972 123.388ZM198.845 183.189L195.117 182.499L195.114 182.511L195.112 182.524L198.845 183.189ZM165.213 238.446L163.04 235.339L163.031 235.345L163.022 235.351L165.213 238.446ZM49.0258 243.092L46.928 246.251L46.928 246.251L49.0258 243.092ZM20.2097 202.014L18.4673 198.646L15.7084 200.073L16.5647 203.059L20.2097 202.014ZM81.4337 170.338L85.0854 169.316L83.8298 164.829L79.6912 166.97L81.4337 170.338ZM91.2398 187.552L88.7682 190.427L88.7682 190.427L91.2398 187.552ZM133.865 177.554L130.157 176.761L130.149 176.798L130.142 176.835L133.865 177.554ZM130.634 164.996L128.031 167.754L128.031 167.754L130.634 164.996ZM41.2302 159.888L37.5513 158.969L36.3807 163.653L41.2095 163.68L41.2302 159.888ZM75.9805 20.8157L76.0012 17.0237L73.0235 17.0075L72.3016 19.8964L75.9805 20.8157ZM214.908 21.5747L218.64 22.2497L219.443 17.8074L214.929 17.7827L214.908 21.5747ZM203.36 81.7405L124.821 81.3114L124.779 88.8953L203.318 89.3244L203.36 81.7405ZM121.131 84.1466L116.749 100.953L124.087 102.866L128.469 86.06L121.131 84.1466ZM120.397 105.702L130.627 105.757L130.669 98.1736L120.439 98.1177L120.397 105.702ZM130.627 105.757C153.364 105.882 170.728 112.746 183.213 125.989L188.731 120.787C174.53 105.724 155.011 98.3066 130.669 98.1736L130.627 105.757ZM183.213 125.989C195.458 138.978 199.739 157.529 195.117 182.499L202.574 183.88C207.472 157.421 203.171 136.104 188.731 120.787L183.213 125.989ZM195.112 182.524C190.955 205.832 180.231 223.319 163.04 235.339L167.386 241.554C186.413 228.251 198.111 208.9 202.578 183.855L195.112 182.524ZM163.022 235.351C145.852 247.505 125.492 253.578 101.77 253.448L101.729 261.032C126.845 261.169 148.795 254.713 167.404 241.542L163.022 235.351ZM101.77 253.448C81.2019 253.336 64.3974 248.748 51.1235 239.933L46.928 246.251C61.7128 256.069 80.0572 260.914 101.729 261.032L101.77 253.448ZM51.1235 239.933C37.9328 231.173 28.8187 218.278 23.8548 200.968L16.5647 203.059C21.9635 221.886 32.0601 236.377 46.928 246.251L51.1235 239.933ZM21.9522 205.382L83.1762 173.706L79.6912 166.97L18.4673 198.646L21.9522 205.382ZM77.782 171.359C80.0662 179.523 83.6405 186.02 88.7682 190.427L93.7114 184.676C90.0801 181.555 87.117 176.576 85.0854 169.316L77.782 171.359ZM88.7682 190.427C94.0466 194.964 101.182 197.008 109.668 197.054L109.71 189.47C102.356 189.43 97.1921 187.667 93.7114 184.676L88.7682 190.427ZM109.668 197.054C117.123 197.095 123.483 195.741 128.359 192.573C133.358 189.325 136.399 184.428 137.588 178.273L130.142 176.835C129.293 181.23 127.287 184.225 124.227 186.213C121.044 188.281 116.335 189.507 109.71 189.47L109.668 197.054ZM137.573 178.348C138.916 172.074 137.684 166.436 133.236 162.238L128.031 167.754C130.149 169.753 131.072 172.487 130.157 176.761L137.573 178.348ZM133.236 162.238C129.082 158.318 123.563 156.546 117.15 156.511L117.108 164.094C122.135 164.122 125.619 165.478 128.031 167.754L133.236 162.238ZM117.15 156.511L41.2509 156.096L41.2095 163.68L117.108 164.094L117.15 156.511ZM44.9091 160.807L79.6594 21.7349L72.3016 19.8964L37.5513 158.969L44.9091 160.807ZM75.9598 24.6076L214.888 25.3666L214.929 17.7827L76.0012 17.0237L75.9598 24.6076ZM211.177 20.8997L199.607 84.8574L207.07 86.2074L218.64 22.2497L211.177 20.8997ZM237.217 122.678L234.258 125.049L234.27 125.065L234.282 125.08L237.217 122.678ZM226.576 77.0793L222.845 76.3972L222.844 76.4052L226.576 77.0793ZM251.891 33.9869L254.312 36.9056L254.317 36.9019L251.891 33.9869ZM342.961 36.1345L340.002 38.5057L340.014 38.521L340.027 38.5361L342.961 36.1345ZM353.932 81.7351L350.201 81.061L350.201 81.061L353.932 81.7351ZM328.614 125.157L331.035 128.076L331.035 128.076L328.614 125.157ZM243.965 216.436L241.445 213.603L237.781 216.861L241.856 219.588L243.965 216.436ZM428.011 52.7694L430.12 49.6179L427.683 47.987L425.492 49.9358L428.011 52.7694ZM448.397 66.411L450.917 69.2446L454.581 65.9863L450.506 63.2595L448.397 66.411ZM264.35 230.078L262.241 233.229L264.679 234.86L266.87 232.912L264.35 230.078ZM299.431 91.0075L296.937 88.1504L296.894 88.1881L296.852 88.227L299.431 91.0075ZM306.424 79.4955L310.138 80.2595L310.141 80.2425L310.145 80.2254L306.424 79.4955ZM303.847 67.9313L300.777 70.157L300.861 70.2735L300.954 70.3833L303.847 67.9313ZM281.077 67.8069L283.559 70.6742L283.608 70.6316L283.655 70.5874L281.077 67.8069ZM274.414 79.3206L278.128 80.0846L278.132 80.0676L278.135 80.0505L274.414 79.3206ZM276.661 90.8831L273.591 93.1088L273.638 93.1733L273.687 93.2357L276.661 90.8831ZM354.72 239.482L351.761 241.853L351.773 241.868L351.786 241.883L354.72 239.482ZM344.079 193.883L340.349 193.201L340.348 193.209L344.079 193.883ZM369.395 150.791L371.816 153.709L371.82 153.706L369.395 150.791ZM460.463 153.268L457.484 155.615L457.506 155.642L457.528 155.67L460.463 153.268ZM471.436 198.539L467.706 197.857L467.704 197.865L471.436 198.539ZM446.118 241.961L443.697 239.042L443.697 239.042L446.118 241.961ZM416.934 207.811L414.441 204.954L414.398 204.992L414.356 205.031L416.934 207.811ZM423.927 196.299L420.213 195.535L420.213 195.535L423.927 196.299ZM421.35 184.735L418.28 186.961L418.327 187.025L418.376 187.088L421.35 184.735ZM398.581 184.611L401.062 187.478L401.111 187.435L401.159 187.391L398.581 184.611ZM391.918 196.124L395.632 196.888L395.635 196.871L395.639 196.854L391.918 196.124ZM394.165 207.687L391.095 209.912L391.141 209.977L391.191 210.039L394.165 207.687ZM280.362 138.262C263.101 138.168 249.847 132.123 240.151 120.276L234.282 125.08C245.567 138.868 261.062 145.741 280.321 145.846L280.362 138.262ZM240.176 120.307C230.656 108.428 227.307 94.3641 230.307 77.7533L222.844 76.4052C219.492 94.9602 223.237 111.296 234.258 125.049L240.176 120.307ZM230.306 77.7613C233.319 61.2828 241.289 47.7076 254.312 36.9056L249.471 31.0682C235.089 42.9968 226.182 58.1499 222.845 76.3972L230.306 77.7613ZM254.317 36.9019C267.538 25.9016 282.869 20.4579 300.476 20.5541L300.517 12.9703C281.164 12.8645 264.091 18.904 249.466 31.0719L254.317 36.9019ZM300.476 20.5541C317.5 20.6471 330.523 26.6773 340.002 38.5057L345.92 33.7632C334.858 19.9591 319.572 13.0744 300.517 12.9703L300.476 20.5541ZM340.027 38.5361C349.753 50.4206 353.197 64.473 350.201 81.061L357.664 82.4092C361.02 63.8314 357.149 47.4833 345.896 33.7328L340.027 38.5361ZM350.201 81.061C347.183 97.7682 339.205 111.446 326.194 122.239L331.035 128.076C345.428 116.138 354.329 100.868 357.664 82.4092L350.201 81.061ZM326.194 122.239C313.205 133.012 297.988 138.358 280.362 138.262L280.321 145.846C299.655 145.952 316.619 140.033 331.035 128.076L326.194 122.239ZM246.484 219.27L430.531 55.603L425.492 49.9358L241.445 213.603L246.484 219.27ZM425.903 55.9209L446.288 69.5624L450.506 63.2595L430.12 49.6179L425.903 55.9209ZM445.877 63.5773L261.83 227.244L266.87 232.912L450.917 69.2446L445.877 63.5773ZM266.459 226.926L246.073 213.285L241.856 219.588L262.241 233.229L266.459 226.926ZM287.173 99.6826C292.803 99.7134 297.799 97.6917 302.009 93.788L296.852 88.227C293.986 90.8847 290.825 92.1185 287.214 92.0988L287.173 99.6826ZM301.924 93.8645C306.233 90.1038 309.048 85.5577 310.138 80.2595L302.709 78.7315C301.991 82.2236 300.144 85.3522 296.937 88.1504L301.924 93.8645ZM310.145 80.2254C311.232 74.6814 310.232 69.5994 306.739 65.4792L300.954 70.3833C302.708 72.4519 303.426 75.0794 302.703 78.7657L310.145 80.2254ZM306.917 65.7056C303.707 61.2779 298.983 59.1626 293.335 59.1317L293.293 66.7156C296.884 66.7352 299.183 67.9583 300.777 70.157L306.917 65.7056ZM293.335 59.1317C287.705 59.101 282.709 61.1226 278.499 65.0263L283.655 70.5874C286.522 67.9297 289.683 66.6959 293.293 66.7156L293.335 59.1317ZM278.596 64.9395C274.415 68.5576 271.76 73.1497 270.693 78.5908L278.135 80.0505C278.878 76.2613 280.666 73.1775 283.559 70.6742L278.596 64.9395ZM270.7 78.5567C269.604 83.8823 270.5 88.845 273.591 93.1088L279.731 88.6574C278.018 86.2948 277.416 83.5492 278.128 80.0846L270.7 78.5567ZM273.687 93.2357C277.057 97.4957 281.676 99.6526 287.173 99.6826L287.214 92.0988C283.912 92.0807 281.509 90.8992 279.635 88.5305L273.687 93.2357ZM397.866 255.066C380.605 254.971 367.35 248.927 357.655 237.08L351.786 241.883C363.071 255.672 378.566 262.544 397.824 262.65L397.866 255.066ZM357.679 237.111C348.16 225.231 344.81 211.168 347.811 194.557L340.348 193.209C336.996 211.764 340.74 228.1 351.761 241.853L357.679 237.111ZM347.809 194.565C350.823 178.086 358.793 164.511 371.816 153.709L366.974 147.872C352.593 159.801 343.686 174.954 340.349 193.201L347.809 194.565ZM371.82 153.706C385.042 142.705 400.373 137.262 417.979 137.358L418.021 129.774C398.668 129.668 381.595 135.708 366.97 147.876L371.82 153.706ZM417.979 137.358C434.979 137.451 447.998 143.572 457.484 155.615L463.442 150.922C452.39 136.892 437.1 129.878 418.021 129.774L417.979 137.358ZM457.528 155.67C467.263 167.564 470.695 181.507 467.706 197.857L475.166 199.221C478.526 180.845 474.644 164.608 463.397 150.867L457.528 155.67ZM467.704 197.865C464.686 214.572 456.709 228.25 443.697 239.042L448.539 244.88C462.932 232.942 471.833 217.672 475.167 199.213L467.704 197.865ZM443.697 239.042C430.709 249.816 415.491 255.162 397.866 255.066L397.824 262.65C417.158 262.755 434.123 256.837 448.539 244.88L443.697 239.042ZM404.677 216.486C410.306 216.517 415.303 214.495 419.513 210.592L414.356 205.031C411.49 207.688 408.329 208.922 404.718 208.902L404.677 216.486ZM419.428 210.668C423.737 206.907 426.552 202.361 427.641 197.063L420.213 195.535C419.495 199.027 417.647 202.156 414.441 204.954L419.428 210.668ZM427.641 197.063C428.755 191.648 427.689 186.635 424.324 182.382L418.376 187.088C420.256 189.463 420.907 192.16 420.213 195.535L427.641 197.063ZM424.42 182.509C421.211 178.082 416.487 175.966 410.838 175.935L410.797 183.519C414.388 183.539 416.686 184.762 418.28 186.961L424.42 182.509ZM410.838 175.935C405.209 175.905 400.212 177.926 396.002 181.83L401.159 187.391C404.025 184.733 407.186 183.5 410.797 183.519L410.838 175.935ZM396.099 181.743C391.918 185.361 389.264 189.953 388.197 195.394L395.639 196.854C396.382 193.065 398.169 189.981 401.062 187.478L396.099 181.743ZM388.203 195.36C387.108 200.686 388.003 205.649 391.095 209.912L397.235 205.461C395.522 203.098 394.919 200.353 395.632 196.888L388.203 195.36ZM391.191 210.039C394.561 214.299 399.18 216.456 404.677 216.486L404.718 208.902C401.415 208.884 399.012 207.703 397.139 205.334L391.191 210.039Z" fill="url(#paint1_linear)"/>
</g>
<defs>
<filter id="filter0_d" x="0.209961" y="0.760891" width="492.332" height="282.098" filterUnits="userSpaceOnUse" color-interpolation-filters="sRGB">
<feFlood flood-opacity="0" result="BackgroundImageFix"/>
<feColorMatrix in="SourceAlpha" type="matrix" values="0 0 0 0 0 0 0 0 0 0 0 0 0 0 0 0 0 0 127 0"/>
<feOffset dy="4"/>
<feGaussianBlur stdDeviation="10"/>
<feColorMatrix type="matrix" values="0 0 0 0 0.329412 0 0 0 0 0.878431 0 0 0 0 0.462745 0 0 0 0.7 0"/>
<feBlend mode="normal" in2="BackgroundImageFix" result="effect1_dropShadow"/>
<feBlend mode="normal" in="SourceGraphic" in2="effect1_dropShadow" result="shape"/>
</filter>
<linearGradient id="paint0_linear" x1="271.229" y1="-44.8779" x2="249.237" y2="207.341" gradientUnits="userSpaceOnUse">
<stop stop-color="#FDFFFC"/>
<stop offset="0.140625" stop-color="#C2FFC8"/>
<stop offset="0.317708" stop-color="#98FFB5"/>
<stop offset="0.619792" stop-color="#00BB29"/>
<stop offset="0.765625" stop-color="#01AF3C"/>
<stop offset="1" stop-color="#009C35"/>
</linearGradient>
<linearGradient id="paint1_linear" x1="-134.059" y1="-111.234" x2="753.935" y2="244.59" gradientUnits="userSpaceOnUse">
<stop stop-color="#E0FEE7" stop-opacity="0.03"/>
<stop offset="1" stop-color="#81FFA4"/>
</linearGradient>
</defs>
</svg>
