<svg width="211" height="58" viewBox="0 0 211 58" fill="none" xmlns="http://www.w3.org/2000/svg">
<path d="M27.1406 40.8281C28.1247 40.8281 29.0384 40.6108 29.8819 40.1763C30.7254 39.7417 31.4283 39.2347 31.9907 38.5104C32.553 37.7861 33.045 36.9894 33.3262 36.0479C33.6074 35.1063 33.8182 34.0923 33.8182 33.0059C33.8182 31.5573 33.3965 30.326 32.553 29.312C31.7095 28.298 30.5145 27.791 29.0384 27.791C28.1247 27.791 27.2109 28.0083 26.3674 28.4429C25.5239 28.8775 24.821 29.4569 24.1884 30.1812C23.5557 30.9055 23.134 31.7746 22.7825 32.7162C22.4311 33.6577 22.2202 34.6717 22.2202 35.7581C22.2202 37.2791 22.642 38.5104 23.5557 39.5244C24.3992 40.3211 25.6645 40.8281 27.1406 40.8281Z" fill="white"/>
<path d="M52.3043 27.4289C51.4608 27.4289 50.6876 27.5737 50.055 27.8634C49.3521 28.1531 48.7898 28.5877 48.2977 29.0223C47.8057 29.5293 47.384 30.0363 47.0325 30.6157C46.6811 31.1951 46.4702 31.7746 46.3999 32.2816H56.4515C56.4515 32.0643 56.5218 31.9194 56.5218 31.7021C56.5218 31.5573 56.5218 31.34 56.5218 31.1951C56.5218 30.1087 56.1703 29.1671 55.3971 28.4429C54.6942 27.791 53.6398 27.4289 52.3043 27.4289Z" fill="white"/>
<path d="M60.7425 33.5954C60.6723 34.3921 60.5317 35.1164 60.3911 35.8407H45.9112C45.9112 35.9856 45.8409 36.1304 45.8409 36.2753C45.8409 36.9271 45.9814 37.579 46.1923 38.086C46.4735 38.6654 46.8249 39.1 47.2467 39.5345C47.7387 39.9691 48.2308 40.2588 48.8634 40.4761C49.496 40.6934 50.1286 40.8382 50.9018 40.8382C52.1671 40.8382 53.2214 40.621 54.0649 40.114C54.9084 39.607 55.7519 39.0275 56.4548 38.1584L59.1961 40.7658C56.8062 43.4457 53.854 44.7494 50.4098 44.7494C49.0742 44.7494 47.8793 44.5321 46.7546 44.1699C45.63 43.7354 44.7162 43.1559 43.8727 42.4317C43.0292 41.7074 42.3966 40.7658 41.9749 39.6794C41.4828 38.593 41.272 37.2893 41.272 35.9131C41.272 34.1748 41.5531 32.5814 42.1154 31.0604C42.6778 29.5394 43.451 28.2357 44.5053 27.1493C45.4894 26.0629 46.6844 25.1938 48.0902 24.5419C49.496 23.89 50.9721 23.6003 52.6591 23.6003C53.7837 23.6003 54.9084 23.7452 55.8925 24.1073C56.8765 24.4695 57.72 24.9765 58.4932 25.6283C59.1961 26.2802 59.7585 27.1493 60.1802 28.1633C60.602 29.1773 60.8128 30.3362 60.8128 31.6399C60.8128 32.2193 60.8128 32.7987 60.7425 33.5954ZM91.3191 9.54927C86.8205 -1.38738 66.0144 -3.56023 37.5465 8.75256C33.1885 10.6357 29.2522 12.5913 25.6674 14.6917L23.3478 27.439H23.4181C24.1913 26.2802 25.1753 25.3386 26.4406 24.6868C27.6355 24.0349 28.971 23.6728 30.4472 23.6728C31.7124 23.6728 32.837 23.89 33.8211 24.3246C34.8052 24.7592 35.719 25.3386 36.4219 26.0629C37.1248 26.8596 37.6871 27.7287 38.1089 28.8152C38.5306 29.9016 38.6712 31.0604 38.6712 32.2917C38.6712 34.03 38.39 35.6234 37.898 37.1444C37.3357 38.6654 36.6328 39.9691 35.719 41.0555C34.8052 42.2144 33.6805 43.0835 32.345 43.7354C31.0095 44.3872 29.6037 44.7494 28.0573 44.7494C26.5812 44.7494 25.2456 44.3872 23.9804 43.7354C22.7152 43.0835 21.7311 42.0695 21.0985 40.8382H21.0282L20.4658 44.2424H15.9672L20.4658 17.9509C4.36923 28.6703 -1.81638 40.5485 1.62788 48.8778C6.1265 59.8144 29.8848 59.9593 54.6272 49.095C58.6338 47.3568 62.4295 45.4012 66.0144 43.3008C65.2412 42.5041 64.8194 41.4177 64.8194 40.114C64.8194 39.7518 64.8194 39.3172 64.8897 38.8103C64.96 38.3757 64.96 37.9411 65.1006 37.5065L66.7876 28.2357H63.273L63.9759 24.2522H67.3499L68.334 18.3855H73.0435L72.0594 24.2522H76.4174L75.7145 28.2357H71.4268L69.7398 37.579C69.6695 38.086 69.5992 38.4481 69.5992 38.8103C69.5992 39.5345 69.8101 40.0415 70.2318 40.3312C70.3021 40.4037 70.4427 40.4761 70.513 40.4761C85.977 30.2637 94.7633 17.9509 91.3191 9.54927Z" fill="white"/>
<path d="M95.3924 35.4684C95.3924 36.917 95.8142 38.1483 96.6577 39.1622C97.5012 40.1762 98.6258 40.6832 100.172 40.6832C101.086 40.6832 102 40.466 102.843 40.0314C103.687 39.5968 104.39 39.0174 105.022 38.2931C105.655 37.5688 106.077 36.7721 106.428 35.8306C106.78 34.889 106.99 33.875 106.99 32.861C106.99 31.34 106.569 30.1087 105.655 29.0947C104.741 28.1532 103.546 27.6462 102.07 27.6462C101.086 27.6462 100.172 27.8635 99.3287 28.298C98.4852 28.7326 97.7823 29.312 97.22 29.9639C96.6577 30.6881 96.1656 31.4849 95.8845 32.4264C95.6033 33.368 95.3924 34.382 95.3924 35.4684ZM108.045 27.3565L108.537 24.3145H113.106L110.013 42.6388C109.732 44.3771 109.31 45.9705 108.748 47.4191C108.185 48.8676 107.412 50.0989 106.498 51.1129C105.585 52.1269 104.39 52.9236 102.984 53.503C101.578 54.0824 99.8911 54.3722 97.9229 54.3722C97.0794 54.3722 96.3062 54.2997 95.3924 54.1549C94.5489 54.01 93.7055 53.7927 92.862 53.503C92.0185 53.2133 91.2453 52.8512 90.4721 52.3442C89.6989 51.9096 89.0663 51.4026 88.5742 50.8232L91.7373 47.2742C92.5105 48.2158 93.4243 48.8676 94.5489 49.3746C95.6736 49.8816 96.7983 50.0989 98.0635 50.0989C99.2584 50.0989 100.243 49.954 101.086 49.5919C101.929 49.2298 102.632 48.7952 103.195 48.1433C103.757 47.5639 104.179 46.7672 104.53 45.9705C104.882 45.1014 105.093 44.1598 105.374 43.2182L105.725 41.6248H105.444C104.741 42.5664 103.827 43.3631 102.703 43.9425C101.578 44.5219 100.243 44.8116 98.7664 44.8116C97.5012 44.8116 96.3765 44.5944 95.3924 44.1598C94.4084 43.7252 93.4946 43.1458 92.7917 42.4215C92.0888 41.6972 91.5264 40.7557 91.1047 39.7417C90.6829 38.6552 90.5424 37.4964 90.5424 36.2651C90.5424 34.5993 90.8235 32.9334 91.3156 31.4849C91.8779 29.9639 92.5808 28.6602 93.4946 27.5737C94.4084 26.4149 95.533 25.5458 96.8685 24.8939C98.2041 24.242 99.6099 23.9523 101.156 23.9523C102.914 23.9523 104.39 24.3145 105.444 24.9663C106.498 25.6182 107.342 26.4873 107.834 27.5737H108.045V27.3565Z" fill="white"/>
<path d="M127.656 35.1064C126.742 35.1064 125.758 35.1064 124.774 35.1788C123.79 35.2513 122.876 35.3961 122.033 35.6858C121.189 35.9031 120.557 36.2653 119.994 36.7723C119.432 37.2068 119.221 37.8587 119.221 38.6554C119.221 39.1624 119.292 39.5245 119.502 39.8143C119.643 40.104 119.924 40.3937 120.205 40.611C120.486 40.8282 120.838 40.9731 121.189 41.0455C121.541 41.118 121.963 41.1904 122.384 41.1904C123.087 41.1904 123.79 41.0455 124.423 40.8282C125.055 40.611 125.618 40.2488 126.11 39.8143C126.602 39.3797 126.953 38.8727 127.305 38.2933C127.586 37.7138 127.867 37.1344 128.008 36.4101L128.218 35.1788H127.656V35.1064ZM128.64 31.6299C128.711 31.2677 128.711 31.0504 128.711 30.8332C128.711 30.6883 128.711 30.471 128.711 30.3262C128.711 29.3846 128.429 28.6603 127.797 28.2257C127.164 27.7912 126.321 27.5739 125.126 27.5739C124.212 27.5739 123.228 27.7912 122.173 28.1533C121.189 28.5155 120.276 29.0225 119.502 29.6019L117.675 26.3426C118.799 25.5459 120.065 24.894 121.471 24.4595C122.876 24.0249 124.352 23.7352 125.829 23.7352C126.742 23.7352 127.656 23.8076 128.57 24.0249C129.484 24.2422 130.257 24.6043 131.03 25.0389C131.733 25.5459 132.295 26.1253 132.717 26.922C133.139 27.7187 133.35 28.6603 133.35 29.7467C133.35 29.964 133.35 30.3262 133.279 30.6883C133.279 31.0504 133.209 31.3402 133.139 31.6299L131.733 39.7418C131.592 40.5385 131.452 41.3352 131.382 42.132C131.311 43.0011 131.241 43.6529 131.241 44.2324H126.883C126.883 43.5081 126.953 42.7114 127.094 41.8422H127.024C125.477 43.7254 123.439 44.6669 120.697 44.6669C119.994 44.6669 119.292 44.5945 118.589 44.4497C117.886 44.3048 117.183 44.0151 116.62 43.5805C116.058 43.1459 115.566 42.6389 115.144 41.9871C114.793 41.3352 114.582 40.4661 114.582 39.4521C114.582 37.7863 115.004 36.4826 115.847 35.4686C116.691 34.4546 117.815 33.6579 119.151 33.0784C120.486 32.499 122.033 32.1369 123.65 31.9196C125.477 31.7023 127.094 31.6299 128.64 31.6299Z" fill="white"/>
<path d="M139.325 26.5599C139.465 25.6908 139.536 24.9665 139.606 24.3146H144.034C144.034 24.6043 143.964 25.1113 143.894 25.7632C143.823 26.415 143.753 26.9945 143.683 27.429H143.753C144.315 26.4875 145.159 25.6183 146.073 24.894C147.057 24.1698 148.252 23.7352 149.728 23.7352C151.345 23.7352 152.68 24.0973 153.664 24.8216C154.648 25.5459 155.281 26.4875 155.562 27.6463C156.406 26.415 157.39 25.4735 158.514 24.7492C159.639 24.0249 160.974 23.7352 162.451 23.7352C163.575 23.7352 164.559 23.8801 165.332 24.2422C166.176 24.6043 166.809 25.0389 167.371 25.5459C167.933 26.1253 168.285 26.7772 168.566 27.5015C168.847 28.2982 168.917 29.0949 168.917 29.8916C168.917 30.6159 168.847 31.1953 168.777 31.7747L166.598 44.2324H161.888L163.786 33.2233C163.856 32.8611 163.856 32.5714 163.927 32.2093C163.997 31.8472 163.997 31.5574 163.997 31.1953C163.997 30.7607 163.927 30.3262 163.856 29.8916C163.716 29.457 163.575 29.0949 163.294 28.8052C163.083 28.5155 162.732 28.2257 162.31 28.0809C161.888 27.8636 161.396 27.7912 160.764 27.7912C159.99 27.7912 159.358 27.936 158.725 28.2982C158.163 28.6603 157.6 29.0949 157.179 29.6019C156.757 30.1089 156.406 30.6883 156.124 31.3402C155.843 31.992 155.632 32.6439 155.562 33.2957L153.734 44.2324H148.955L150.993 32.1369C151.063 31.7023 151.134 31.3402 151.134 30.978C151.134 30.0364 150.923 29.2397 150.431 28.6603C149.939 28.0809 149.166 27.7912 148.181 27.7912C147.479 27.7912 146.776 27.936 146.213 28.2982C145.651 28.5879 145.159 29.0225 144.667 29.5294C144.245 30.0364 143.894 30.6159 143.613 31.2677C143.331 31.9196 143.121 32.5714 143.05 33.2233L141.152 44.2324H136.443L139.114 28.5155C139.114 28.0809 139.255 27.3566 139.325 26.5599Z" fill="white"/>
<path d="M187.334 32.354C187.334 32.1367 187.404 31.9918 187.404 31.7746C187.404 31.6297 187.404 31.4124 187.404 31.2676C187.404 30.1811 187.053 29.2396 186.279 28.5153C185.506 27.791 184.522 27.3564 183.116 27.3564C182.273 27.3564 181.5 27.5013 180.867 27.791C180.164 28.0807 179.602 28.5153 179.11 28.9499C178.618 29.4569 178.196 29.9639 177.844 30.5433C177.493 31.1227 177.282 31.7021 177.212 32.2091H187.334V32.354ZM176.79 35.8305C176.79 35.9754 176.72 36.1203 176.72 36.2651C176.72 36.917 176.86 37.5688 177.071 38.0758C177.352 38.6552 177.704 39.0898 178.126 39.5244C178.618 39.9589 179.11 40.2487 179.742 40.4659C180.375 40.6832 181.008 40.8281 181.781 40.8281C183.046 40.8281 184.1 40.6108 184.944 40.1038C185.787 39.5968 186.631 39.0174 187.334 38.1482L190.075 40.7557C187.685 43.4355 184.733 44.7392 181.289 44.7392C179.953 44.7392 178.758 44.5219 177.634 44.1598C176.509 43.7252 175.595 43.1458 174.752 42.4215C173.908 41.6972 173.276 40.7557 172.854 39.6692C172.362 38.5828 172.151 37.2791 172.151 35.903C172.151 34.1647 172.432 32.5713 172.994 31.0503C173.557 29.5293 174.33 28.2256 175.384 27.1392C176.368 26.0527 177.563 25.1836 178.969 24.5317C180.375 23.8799 181.851 23.5902 183.538 23.5902C184.663 23.5902 185.787 23.735 186.771 24.0972C187.755 24.4593 188.599 24.9663 189.372 25.6182C190.075 26.27 190.637 27.1392 191.059 28.1532C191.481 29.1671 191.692 30.326 191.692 31.6297C191.692 32.0643 191.621 32.7161 191.551 33.5128C191.481 34.3096 191.34 35.0338 191.2 35.7581H176.79V35.8305Z" fill="white"/>
<path d="M196.12 38.583C196.542 39.3797 197.105 40.0315 197.948 40.4661C198.721 40.9007 199.635 41.118 200.619 41.118C201.744 41.118 202.587 40.9007 203.29 40.4661C203.923 40.0315 204.274 39.3797 204.274 38.6554C204.274 37.9311 203.993 37.4241 203.501 37.062C203.009 36.6999 202.165 36.3377 200.971 35.9756C200.057 35.6859 199.284 35.3237 198.581 35.034C197.878 34.7443 197.315 34.3097 196.894 33.8752C196.402 33.4406 196.12 32.9336 195.839 32.4266C195.628 31.8472 195.488 31.1953 195.488 30.471C195.488 29.5295 195.699 28.5879 196.12 27.7912C196.542 26.9945 197.175 26.2702 197.878 25.6908C198.651 25.1114 199.494 24.6768 200.549 24.3146C201.603 24.0249 202.728 23.8076 203.923 23.8076C205.469 23.8076 206.805 24.0974 208.07 24.6768C209.265 25.2562 210.249 26.1253 210.952 27.2842L207.297 29.5295C206.945 28.95 206.453 28.5155 205.891 28.1533C205.329 27.7912 204.555 27.5739 203.571 27.5739C203.15 27.5739 202.728 27.6463 202.306 27.7188C201.884 27.7912 201.533 27.9361 201.181 28.0809C200.83 28.2982 200.619 28.5155 200.408 28.8052C200.197 29.0949 200.127 29.457 200.127 29.964C200.127 30.6159 200.408 31.0505 200.9 31.4126C201.463 31.7023 202.236 31.992 203.22 32.3542C205.047 32.8612 206.453 33.5854 207.437 34.527C208.421 35.3961 208.913 36.6999 208.913 38.3657C208.913 39.4521 208.703 40.4661 208.211 41.3353C207.718 42.2044 207.156 42.9287 206.383 43.5081C205.61 44.0875 204.696 44.5221 203.712 44.8118C202.728 45.1015 201.603 45.2464 200.479 45.2464C198.37 45.2464 196.683 44.8842 195.418 44.0875C194.152 43.2908 193.168 42.3492 192.465 41.2628L196.12 38.583Z" fill="white"/>
</svg>
