<svg width="190" height="41" viewBox="0 0 190 41" fill="none" xmlns="http://www.w3.org/2000/svg">
<g clip-path="url(#clip0)">
<path d="M14.2093 18.5963L15.1339 22.8903H21.8495L24.1367 18.8891L22.2874 29.3801H31.2415L36.2052 0.981262H26.8131L20.2436 12.3017L17.6644 0.981262H8.36974L3.35742 29.3801H12.3115L14.2093 18.5963Z" fill="white"/>
<path d="M60.002 29.3801H61.1699H64.041H71.0972L76.2068 22.8903L79.6619 29.3801H89.1999L81.8031 15.6198L93.385 0.981262H82.2898L77.3748 7.22705L74.1143 0.981262H64.5763L71.7298 14.4487L63.4084 25.0373L60.002 29.3801Z" fill="white"/>
<path d="M42.7265 29.3801L45.5003 22.8903H49.9773L50.5126 29.3801H56.7415H59.6127L58.98 25.0861L55.379 1.03009H47.5928L33.4805 29.3801H42.7265ZM47.5442 17.7668L49.3934 13.5217L49.6853 17.7668H47.5442Z" fill="white"/>
<path d="M100.684 32.503L104.285 12.1554H95.38L90.3677 40.4566H110.514L111.926 32.503H100.684Z" fill="#009A17"/>
<path d="M118.592 12.1066L113.58 40.4078H122.534L127.546 12.1066H118.592V12.1066Z" fill="#009A17"/>
<path d="M145.893 12.1066L143.8 24.1102L137.376 12.1066H130.564L125.551 40.4078H134.505L136.598 28.5017L142.924 40.4078H149.834L154.847 12.1066H145.893V12.1066Z" fill="#009A17"/>
<path d="M175.918 20.109L177.281 12.1554H157.864L152.852 40.4566H172.317L173.679 32.503H163.168L163.606 29.8192H171.1L172.463 22.3048H164.969L165.309 20.109H175.918V20.109Z" fill="#009A17"/>
<path d="M2.77381 32.5029L0 40.4565H87.2533L88.6645 32.5029H2.77381Z" fill="#009A17"/>
<path d="M95.9155 9.03247L97.3268 1.07886H180.93L177.865 9.03247H95.9155Z" fill="white"/>
<path d="M186.819 2.10355C187.208 2.10355 187.597 2.20114 187.986 2.34752C188.327 2.49391 188.619 2.68909 188.96 2.98186C189.252 3.27463 189.446 3.5674 189.592 3.95776C189.738 4.29933 189.836 4.68969 189.836 5.12885C189.836 5.66559 189.738 6.15355 189.446 6.5927C189.154 7.03186 188.814 7.42222 188.376 7.6662C187.889 7.95897 187.403 8.05656 186.916 8.05656C186.381 8.05656 185.894 7.95897 185.456 7.6662C184.969 7.37343 184.629 7.03186 184.385 6.5927C184.093 6.15355 183.996 5.6168 183.996 5.12885C183.996 4.6409 184.093 4.10415 184.385 3.66499C184.677 3.22584 185.018 2.83547 185.456 2.5915C185.797 2.20114 186.283 2.10355 186.819 2.10355ZM186.819 2.68909C186.381 2.68909 185.991 2.78668 185.602 2.98186C185.261 3.17704 184.969 3.46981 184.775 3.81138C184.531 4.15294 184.483 4.5921 184.483 4.98246C184.483 5.37282 184.58 5.81198 184.775 6.15355C185.018 6.49511 185.261 6.78788 185.651 6.98306C185.991 7.17825 186.429 7.27584 186.867 7.27584C187.305 7.27584 187.695 7.17825 188.084 6.98306C188.424 6.78788 188.716 6.49511 188.911 6.15355C189.106 5.81198 189.203 5.37282 189.203 4.98246C189.203 4.5921 189.106 4.15294 188.911 3.81138C188.716 3.46981 188.424 3.17704 188.084 2.98186C187.646 2.78668 187.257 2.68909 186.819 2.68909ZM186.137 6.5927H185.505V3.46981H186.965C187.208 3.46981 187.403 3.51861 187.549 3.5674C187.695 3.66499 187.841 3.76258 187.889 3.86017C187.986 3.95776 187.986 4.15294 187.986 4.29933C187.986 4.54331 187.889 4.73849 187.743 4.88487C187.597 5.03126 187.403 5.17764 187.111 5.17764C187.257 5.22644 187.354 5.27523 187.451 5.42162C187.549 5.51921 187.646 5.71439 187.792 5.90957L188.181 6.54391H187.403L187.111 6.05596C187.013 5.81198 186.867 5.66559 186.819 5.568C186.721 5.47041 186.673 5.37282 186.527 5.32403C186.429 5.27523 186.332 5.22644 186.235 5.22644H186.089V6.5927H186.137ZM186.137 4.00656V4.83608H186.624C186.867 4.83608 187.062 4.78728 187.159 4.73849C187.257 4.6409 187.354 4.54331 187.354 4.39692C187.354 4.29933 187.305 4.15294 187.208 4.10415C187.111 4.00656 186.916 4.00656 186.721 4.00656H186.137Z" fill="white"/>
</g>
<defs>
<clipPath id="clip0">
<rect width="189.787" height="40.0121" fill="white" transform="translate(0 0.590912)"/>
</clipPath>
</defs>
</svg>
